<svg width="901" height="712" viewBox="0 0 901 712" fill="none" xmlns="http://www.w3.org/2000/svg">
<path d="M693.816 412.024C706.988 364.811 717.524 316.866 725.427 268.481C733.476 250.153 742.549 232.265 752.501 214.964C764.794 193.704 779.282 174.056 792.746 153.529C804.746 135.201 815.576 114.967 816.893 92.8275C817.917 75.5261 814.113 56.9051 802.551 43.4159C789.819 28.4605 770.209 22.5956 751.038 24.355C730.256 26.1145 711.378 37.1112 695.28 49.8673C677.865 63.7964 661.62 79.6316 646.254 95.6134C616.546 126.551 590.204 160.714 567.52 197.076C550.837 190.624 534.739 182.853 518.641 175.229C495.225 164.086 471.517 154.262 446.346 147.664C401.418 135.934 350.782 131.389 306.732 148.691C266.926 164.379 233.413 200.155 232.828 244.728C232.535 262.323 237.657 277.718 246.145 291.207C227.998 301.177 212.632 315.4 203.119 334.167C193.461 353.228 191.558 376.541 199.461 396.482C202.388 403.813 206.485 410.411 211.461 416.276C196.68 429.765 183.363 446.92 177.216 466.127C171.362 484.308 174.728 502.636 184.387 518.911C187.168 523.457 190.387 527.709 193.9 531.814C177.655 546.036 172.387 569.349 177.216 590.17C182.777 614.655 200.631 633.716 219.803 648.818C234.584 660.402 250.389 670.812 266.78 680.049C274.975 685.181 283.609 690.019 292.244 694.418C301.464 698.963 311.122 703.215 320.928 706.148C327.66 708.2 334.538 709.96 341.416 710.84C346.099 711.426 350.782 711.719 355.465 711.573C357.807 711.573 360.148 711.426 362.343 711.133C368.783 710.546 375.222 708.787 381.515 706.734C385.905 705.268 390.149 703.362 394.247 701.016C397.466 699.256 400.686 697.35 403.613 695.298C422.052 699.696 440.785 702.189 459.81 701.896C500.347 701.162 538.397 684.741 569.13 658.495C602.936 629.758 626.79 591.489 644.937 551.315C665.279 506.742 680.499 459.383 693.816 412.024Z" fill="#EF9E81"/>
<path d="M196.21 536.535C224.226 554.597 253.268 571.19 283.044 586.021C297.712 593.364 312.673 600.412 327.927 606.58C343.035 612.747 358.583 618.033 374.718 621.264C389.679 624.201 405.96 625.669 421.068 622.732C430.456 620.97 440.576 618.621 448.644 613.334C453.484 610.251 457.591 606.286 461.405 602.027C464.778 598.209 468.299 594.098 470.792 589.693C474.753 582.497 476.953 574.421 477.833 566.344C480.326 545.933 473.726 524.788 457.298 511.865C454.951 509.956 452.311 508.194 449.671 506.726C447.617 505.551 445.857 508.635 447.764 509.956C457.298 515.536 464.925 523.466 469.619 533.598C473.579 542.115 475.046 551.807 474.606 561.205C474.166 569.281 472.552 577.358 469.179 584.7C467.712 587.93 465.805 590.867 463.605 593.657C459.645 598.797 455.244 603.643 450.257 607.754C443.217 613.481 434.563 615.978 425.909 618.033C411.534 621.558 396.426 621.117 381.905 618.914C350.516 614.069 321.033 600.559 292.725 586.756C263.682 572.659 235.373 556.946 208.091 539.766C204.717 537.71 201.49 535.507 198.117 533.451C196.063 532.13 194.157 535.36 196.21 536.535Z" fill="#C4674E"/>
<path d="M223.492 421.703C256.202 437.122 289.204 452.1 322.207 466.49C353.89 480.44 385.866 494.391 419.308 503.642C435.443 508.194 452.751 512.452 469.619 509.516C482.087 507.313 493.528 500.999 502.328 492.041C511.276 482.937 517.729 471.189 520.37 458.561C521.983 451.219 521.396 443.583 520.076 436.241C516.116 414.948 503.208 395.712 484.433 384.992C481.647 383.377 478.713 382.055 475.633 380.734C473.433 379.853 472.553 383.377 474.606 384.258C494.994 392.775 509.662 410.396 515.236 431.542C517.143 438.884 518.17 446.666 517.289 454.155C516.116 465.022 510.689 476.035 503.942 484.552C496.168 494.097 485.754 501.292 473.873 504.67C458.178 508.928 441.75 505.698 426.349 501.586C393.933 493.216 362.984 480.147 332.328 466.784C300.352 452.834 268.669 438.59 236.987 423.906C233.027 421.997 229.066 420.235 225.106 418.326C223.199 417.591 221.439 420.822 223.492 421.703Z" fill="#C4674E"/>
<path d="M257.962 297.326C295.071 312.745 331.008 330.807 367.531 347.106C385.572 355.183 403.907 362.819 422.535 369.573C441.457 376.475 461.112 383.23 481.207 385.433C498.661 387.488 517.289 385.139 532.104 374.86C538.851 370.161 544.572 363.993 548.239 356.651C552.052 349.162 553.812 340.645 553.666 332.275C553.666 314.948 545.892 298.942 534.451 286.166C521.983 272.216 505.555 262.524 488.54 255.035C474.019 248.574 459.058 243.288 444.243 237.561C429.722 231.981 415.495 226.107 401.413 219.646C396.866 217.59 392.319 215.534 387.772 213.332C385.719 212.304 383.812 215.534 385.865 216.562C401.12 223.611 416.521 230.366 432.069 236.68C445.124 241.819 458.178 246.812 471.232 251.805C488.687 258.56 506.142 266.342 520.81 278.237C533.717 288.809 544.718 302.906 548.532 319.353C552.346 335.506 548.972 353.714 537.091 365.756C525.21 377.797 507.755 382.496 491.181 382.202C471.232 381.908 451.577 375.447 432.949 369.133C414.321 362.819 396.133 355.476 378.238 347.694C342.449 332.128 307.539 314.507 271.603 299.088C267.349 297.179 262.949 295.417 258.695 293.655C256.788 292.774 255.762 296.445 257.962 297.326Z" fill="#C4674E"/>
<path d="M406.694 688.078C412.121 676.917 414.321 664.142 412.854 651.807C412.121 645.786 410.654 639.766 408.307 634.039C406.254 629.046 403.614 622.438 398.04 620.676C395.84 619.942 394.813 623.466 397.013 624.2C399.507 624.935 400.974 627.431 402.147 629.634C403.467 632.13 404.64 634.626 405.667 637.27C407.574 642.556 408.894 647.989 409.334 653.569C410.361 664.729 408.307 676.036 403.467 686.169C402.44 688.371 405.667 690.28 406.694 688.078Z" fill="#C4674E"/>
<path d="M466.538 357.238C467.272 334.625 477.099 312.745 493.381 297.179C495.141 295.564 492.501 292.921 490.74 294.536C473.726 310.836 463.605 333.597 462.725 357.092C462.872 359.588 466.538 359.588 466.538 357.238Z" fill="#C4674E"/>
<path d="M487.66 302.172C495.874 304.522 504.088 307.312 511.569 311.57C517.583 314.948 523.157 319.94 524.33 327.136C525.503 334.184 522.276 341.38 517.143 346.079C511.716 351.218 504.088 353.568 496.754 354.155C486.634 354.889 476.659 352.099 466.979 349.309C464.778 348.722 463.752 352.246 465.952 352.833C482.967 357.826 503.355 362.085 518.463 349.75C524.33 344.904 528.29 337.415 528.144 329.632C528.144 321.556 523.45 315.095 517.143 310.689C513.329 308.046 509.075 305.99 504.822 304.228C499.541 302.025 494.114 300.116 488.54 298.501C486.34 297.914 485.46 301.438 487.66 302.172Z" fill="#C4674E"/>
<path d="M421.802 473.833C422.535 449.603 433.096 426.255 450.551 409.515C452.311 407.9 449.671 405.257 447.911 406.872C429.722 424.2 418.868 448.576 417.988 473.833C417.988 476.182 421.655 476.182 421.802 473.833Z" fill="#C4674E"/>
<path d="M444.537 414.801C453.191 417.297 461.992 420.381 469.912 424.786C476.513 428.457 482.673 433.891 483.847 441.82C484.873 449.309 481.5 456.945 476.073 461.938C470.059 467.518 461.845 470.014 453.924 470.602C443.07 471.336 432.509 468.399 422.242 465.462C420.042 464.875 419.015 468.399 421.215 468.986C439.11 474.273 460.818 478.825 476.806 466.049C483.26 460.91 487.514 452.834 487.514 444.463C487.514 435.8 482.38 428.898 475.633 424.052C471.526 421.115 466.979 419.059 462.432 417.151C456.858 414.801 451.137 412.745 445.417 411.13C443.217 410.543 442.19 414.067 444.537 414.801Z" fill="#C4674E"/>
<path d="M382.198 592.042C382.932 567.813 393.493 544.465 410.947 527.724C412.708 526.109 410.067 523.466 408.307 525.081C390.119 542.409 379.265 566.785 378.385 592.042C378.385 594.392 382.052 594.392 382.198 592.042Z" fill="#C4674E"/>
<path d="M404.934 532.864C413.588 535.36 422.389 538.444 430.309 542.849C436.91 546.52 443.07 551.953 444.244 559.883C445.27 567.372 441.897 575.008 436.47 580.001C430.456 585.581 422.242 588.077 414.321 588.664C403.467 589.399 392.906 586.462 382.639 583.525C380.439 582.937 379.412 586.462 381.612 587.049C399.507 592.336 421.215 596.888 437.203 584.112C443.657 578.973 447.911 570.896 447.911 562.526C447.911 553.862 442.777 546.961 436.03 542.115C431.923 539.178 427.376 537.122 422.829 535.213C417.255 532.864 411.534 530.808 405.814 529.193C403.614 528.605 402.587 532.276 404.934 532.864Z" fill="#C4674E"/>
<path d="M335.114 681.176C335.701 662.967 343.622 645.346 356.823 632.717C358.583 631.102 355.943 628.459 354.183 630.074C340.248 643.29 332.034 661.939 331.448 681.029C331.448 683.525 335.114 683.525 335.114 681.176Z" fill="#C4674E"/>
<path d="M351.836 636.829C358.29 638.738 364.89 640.94 370.758 644.318C375.598 647.108 380.292 651.073 381.172 656.946C382.052 662.526 379.412 668.4 375.305 672.071C370.758 676.183 364.597 677.945 358.73 678.386C350.663 678.826 342.889 676.77 335.115 674.421C332.914 673.834 331.888 677.358 334.088 677.945C347.876 681.91 364.45 685.434 376.625 675.596C381.612 671.631 384.839 665.463 384.839 659.002C384.839 652.394 381.025 646.961 375.745 643.143C368.997 638.297 360.49 635.507 352.569 633.305C350.516 632.57 349.636 636.095 351.836 636.829Z" fill="#C4674E"/>
<path d="M798.178 524.346L786.004 482.496L774.71 524.346L734.227 537.709L774.71 551.365L786.004 596.74L798.765 551.659L837.782 537.709L798.178 524.346Z" fill="#FFD62A"/>
<path d="M124.484 202.318L112.603 161.349L101.455 202.172L61.8522 215.387L101.455 228.603L112.603 273.097L125.071 228.897L163.354 215.387L124.484 202.318Z" fill="#FFD62A"/>
<path d="M877.091 416.71L869.758 391.453L862.864 416.71L838.515 424.639L862.864 432.863L869.758 460.323L877.385 433.156L901 424.639L877.091 416.71Z" fill="#FFD62A"/>
<path d="M38.5306 338.148L31.3433 313.479L24.5961 338.148L0.687469 346.078L24.5961 354.007L31.3433 380.88L38.8239 354.154L61.8524 346.078L38.5306 338.148Z" fill="#FFD62A"/>
<path d="M501.741 21.1129L495.874 0.70166L490.3 21.1129L470.646 27.5741L490.3 34.182L495.874 56.3554L502.035 34.3289L521.103 27.5741L501.741 21.1129Z" fill="#FFD62A"/>
<path d="M118.47 651.219L112.603 630.808L107.029 651.219L87.3744 657.827L107.029 664.435L112.603 686.462L118.764 664.582L137.832 657.827L118.47 651.219Z" fill="#FFD62A"/>
</svg>
